<?xml version="1.0" standalone="no"?>
<!DOCTYPE svg PUBLIC "-//W3C//DTD SVG 20010904//EN"
 "http://www.w3.org/TR/2001/REC-SVG-20010904/DTD/svg10.dtd">
<svg version="1.0" xmlns="http://www.w3.org/2000/svg"
 width="1024.000000pt" height="1024.000000pt" viewBox="0 0 1024.000000 1024.000000"
 preserveAspectRatio="xMidYMid meet">
<metadata>
Created by potrace 1.16, written by Peter Selinger 2001-2019
</metadata>
<g transform="translate(0.000000,1024.000000) scale(0.100000,-0.100000)"
fill="#000000" stroke="none">
<path d="M0 5120 l0 -5120 5120 0 5120 0 0 5120 0 5120 -5120 0 -5120 0 0
-5120z m5550 3850 c529 -54 997 -188 1461 -420 167 -84 249 -133 458 -273 275
-184 521 -398 735 -638 305 -341 530 -695 708 -1109 158 -367 262 -785 297
-1195 16 -177 13 -576 -4 -740 -61 -579 -261 -1130 -592 -1635 -66 -100 -186
-266 -203 -280 -3 -3 -39 -45 -80 -95 -72 -86 -223 -242 -326 -335 -416 -378
-955 -688 -1514 -871 -540 -176 -1084 -245 -1655 -209 -1011 64 -1988 498
-2689 1196 -490 488 -865 1193 -1002 1884 -61 309 -68 383 -68 720 -1 336 8
445 60 730 101 557 322 1082 658 1562 47 68 101 141 118 162 156 188 210 248
328 366 518 520 1185 901 1877 1074 266 66 478 100 733 116 162 10 554 5 700
-10z"/>
<path d="M8186 7365 c15 -22 33 -44 39 -50 6 -5 26 -32 45 -60 18 -27 37 -52
40 -55 8 -6 30 -46 30 -55 0 -3 -3 -4 -7 -2 -5 3 -8 -5 -8 -18 0 -13 3 -21 8
-18 4 2 7 -9 7 -26 0 -23 4 -29 15 -25 8 4 15 1 15 -5 0 -8 6 -9 19 -2 24 13
32 4 25 -28 -4 -18 -3 -22 4 -12 5 7 12 9 15 5 3 -5 -1 -15 -8 -21 -11 -10
-15 -9 -20 6 -3 10 -3 26 1 35 5 12 2 15 -11 10 -14 -6 -16 -15 -10 -53 4 -25
9 -101 11 -168 3 -68 9 -123 15 -123 11 0 12 -92 2 -181 l-8 -64 -6 45 -6 45
-1 -42 c-1 -24 -6 -43 -12 -43 -5 0 -10 -18 -10 -40 0 -22 -4 -40 -10 -40 -15
0 -12 -77 3 -84 6 -2 -3 -4 -20 -3 -18 1 -33 7 -33 13 0 14 -51 127 -60 134
-4 3 -11 16 -15 30 -4 14 -16 37 -26 52 -11 14 -19 33 -19 41 0 8 -6 17 -14
20 -7 3 14 -52 49 -121 123 -251 228 -534 250 -677 3 -22 8 -47 11 -57 4 -13
-5 -17 -48 -23 -201 -25 -370 -59 -508 -104 -30 -10 -97 -31 -147 -47 -51 -16
-93 -32 -93 -35 0 -4 36 -12 80 -19 44 -7 83 -16 86 -21 3 -5 -7 -21 -23 -35
-22 -20 -23 -24 -8 -19 11 3 16 3 12 -1 -4 -4 0 -15 9 -25 14 -16 14 -18 -6
-29 l-21 -11 22 -18 c13 -10 19 -23 15 -29 -8 -14 -84 -52 -102 -52 -7 0 -17
-7 -22 -16 -6 -11 -17 -15 -31 -11 -11 3 -21 1 -21 -3 0 -5 23 -8 51 -8 46 1
76 -13 64 -32 -2 -3 12 -16 31 -29 26 -18 32 -26 22 -33 -11 -6 -11 -10 0 -17
11 -6 8 -12 -12 -27 -36 -27 -112 -156 -137 -233 -23 -72 -36 -94 -50 -85 -5
3 -15 -10 -23 -28 -9 -23 -15 -28 -19 -18 -9 26 -45 154 -53 190 l-8 35 -7
-40 c-4 -22 -8 -60 -9 -85 0 -57 -15 -83 -24 -46 -10 41 -22 31 -41 -36 -18
-66 -39 -108 -55 -108 -5 0 -26 35 -47 78 l-38 77 -6 -120 c-9 -186 -34 -208
-64 -57 -11 52 -22 37 -28 -37 -8 -96 -47 -156 -47 -73 0 52 -26 155 -51 203
-11 23 -22 39 -24 37 -2 -1 3 -28 11 -58 26 -100 13 -268 -24 -297 -13 -10
-13 -17 -4 -38 18 -38 15 -57 -16 -92 -15 -18 -34 -40 -42 -50 -15 -19 -101
-96 -136 -123 -43 -33 -242 -136 -248 -129 -2 2 -6 43 -9 91 l-6 86 70 17 c38
9 69 21 69 26 0 29 -70 253 -112 358 -45 112 -50 132 -52 212 -1 49 1 89 6 89
4 0 8 -5 8 -11 0 -24 105 -228 157 -307 54 -79 55 -83 45 -122 -10 -39 -3 -58
18 -45 6 3 10 -4 10 -18 0 -37 19 -48 58 -32 36 16 40 36 22 122 -5 26 -16 83
-24 127 -11 54 -31 109 -65 177 -35 67 -57 127 -71 191 -42 196 -66 229 -190
274 -41 14 -81 31 -87 36 -25 20 -14 57 28 95 61 55 90 113 97 188 5 69 10 76
29 47 8 -14 8 -32 1 -66 -13 -63 -4 -107 30 -139 51 -48 122 -44 157 9 15 24
15 24 -15 24 -41 0 -46 17 -27 109 19 96 11 145 -33 184 -35 31 -93 36 -140
12 -28 -15 -31 -14 -75 19 -51 39 -101 50 -200 44 -54 -3 -70 -9 -104 -36 -37
-30 -41 -31 -68 -17 -44 23 -96 19 -127 -10 -50 -46 -58 -103 -26 -187 11 -29
20 -63 20 -76 0 -26 -26 -40 -43 -23 -14 14 -27 14 -27 1 0 -21 49 -60 76 -60
73 0 121 73 104 161 -12 62 -12 59 -1 59 4 0 11 -29 14 -65 8 -80 25 -116 89
-181 66 -68 61 -86 -29 -108 -122 -31 -141 -49 -232 -224 -55 -105 -57 -107
-89 -104 -18 1 -63 12 -100 25 -67 22 -67 22 -75 67 -18 100 -57 254 -72 283
-8 17 -14 31 -13 32 57 31 58 33 42 77 -23 66 -124 308 -149 358 -41 80 -98
120 -235 160 -41 12 -78 27 -81 32 -13 21 5 58 43 89 54 43 76 96 84 205 7 99
-2 131 -55 187 -50 55 -94 69 -195 65 -80 -3 -96 -7 -132 -31 -67 -46 -86 -90
-90 -219 l-3 -111 49 -48 c50 -48 64 -78 58 -120 -3 -20 -17 -27 -101 -51
-166 -48 -201 -77 -245 -203 -11 -33 -45 -123 -75 -200 -55 -139 -55 -140 -35
-157 11 -10 26 -18 34 -18 10 0 9 -8 -6 -32 -10 -18 -26 -60 -35 -93 -30 -105
-45 -133 -81 -154 -23 -14 -36 -31 -40 -50 -5 -25 -13 -30 -70 -46 -35 -9 -75
-14 -88 -11 -13 3 -60 46 -105 95 -72 79 -89 92 -139 108 -52 17 -57 20 -57
48 0 27 5 31 60 50 72 24 95 59 95 145 0 49 -4 59 -29 81 -28 24 -29 30 -25
80 5 48 2 59 -24 100 -45 71 -120 104 -232 104 -47 0 -107 -6 -133 -14 -59
-17 -143 -90 -168 -146 -25 -54 -25 -145 1 -194 28 -55 108 -123 179 -151 77
-31 81 -54 18 -94 -47 -30 -81 -77 -197 -276 l-73 -125 -27 -155 c-16 -95 -35
-171 -48 -197 -28 -54 -28 -65 4 -102 18 -22 35 -31 55 -31 27 0 29 3 29 35 0
29 4 35 18 33 15 -3 17 4 14 52 -2 49 2 63 40 127 24 40 58 99 77 132 19 33
37 58 41 56 5 -3 13 -42 20 -88 12 -85 1 -293 -21 -411 -11 -61 -12 -56 6 -56
20 0 19 -9 -6 -91 -25 -81 -23 -81 -134 -16 -126 73 -239 168 -303 256 -14 20
-42 54 -61 76 -31 34 -31 36 -5 12 31 -27 76 -39 57 -14 -26 32 -39 274 -19
347 8 30 13 57 11 58 -12 13 -48 -98 -75 -230 -6 -32 -15 -58 -20 -58 -10 0
-30 88 -30 130 0 45 -18 36 -33 -17 -8 -27 -18 -47 -23 -45 -11 3 -12 166 -1
210 5 18 5 32 0 32 -11 0 -59 -94 -68 -133 -13 -49 -23 -39 -50 48 -27 89 -40
104 -51 58 -11 -49 -16 -65 -20 -60 -8 7 -64 217 -64 238 0 61 -33 -38 -66
-201 -5 -24 -6 -24 -21 8 -9 19 -21 31 -29 28 -6 -2 -14 3 -17 12 -35 107 -61
172 -80 201 -51 77 -51 76 4 74 47 -2 67 11 32 20 -17 4 -17 5 0 6 18 1 25 31
7 31 -17 0 -11 45 10 67 14 15 16 23 7 27 -7 3 0 3 16 -1 22 -4 26 -2 21 11
-4 12 -2 15 9 11 8 -4 17 0 20 8 4 10 -3 12 -24 9 -17 -3 -29 0 -29 7 0 6 -16
11 -36 11 -19 0 -33 4 -30 8 2 4 -15 14 -40 21 -57 17 -61 26 -24 47 l30 18
-23 24 c-21 22 -21 24 -4 34 18 9 17 12 -8 38 -32 33 -25 39 50 47 30 3 55 9
55 13 0 4 12 5 27 2 111 -19 -208 96 -392 142 -136 34 -252 56 -300 56 -22 0
-51 3 -64 7 -21 5 -23 10 -18 47 14 100 149 492 212 616 29 58 29 57 10 57 -8
0 -12 -4 -9 -9 6 -9 -67 -160 -74 -153 -3 2 -5 29 -6 58 -1 45 1 52 12 40 11
-10 11 -20 3 -45 -14 -39 -14 -48 1 -24 15 27 22 146 8 146 -8 0 -10 38 -6
130 3 81 2 130 -4 130 -6 0 -10 18 -10 40 0 22 -4 40 -10 40 -5 0 -10 13 -10
29 0 16 -6 32 -12 34 -10 4 -9 8 2 16 13 10 13 12 0 22 -11 8 -12 12 -2 16 14
6 16 43 2 43 -5 0 -10 9 -10 20 0 11 5 20 10 20 6 0 9 22 8 49 -2 46 -3 48
-16 29 -13 -17 -13 -22 -1 -30 11 -8 10 -9 -3 -4 -12 3 -15 1 -11 -10 3 -7 1
-14 -5 -14 -14 0 -23 28 -12 35 5 3 17 21 26 40 11 24 20 32 32 28 10 -4 14
-3 10 2 -8 8 14 54 45 97 11 15 19 30 16 32 -2 2 -33 -38 -69 -90 -36 -52 -70
-100 -75 -107 -52 -62 -208 -349 -294 -540 -28 -61 -42 -95 -102 -252 -33 -86
-95 -304 -128 -446 -89 -389 -112 -826 -66 -1239 12 -103 22 -152 34 -170 25
-35 113 -77 201 -97 106 -23 369 -22 470 1 41 10 82 19 90 19 20 3 54 -95 37
-105 -32 -17 -191 -38 -296 -38 -235 0 -434 51 -530 134 l-24 21 7 -47 c10
-67 69 -296 104 -403 88 -266 207 -513 397 -818 99 -160 340 -452 496 -602
667 -640 1538 -1036 2474 -1127 189 -18 634 -15 830 6 489 52 966 184 1395
388 1066 507 1817 1409 2065 2480 34 144 34 143 -19 108 -153 -104 -499 -154
-731 -106 -49 10 -94 22 -98 26 -5 4 0 29 12 55 16 35 25 45 38 41 122 -34
426 -41 552 -13 78 17 181 61 218 93 29 24 38 88 55 362 44 740 -143 1502
-528 2143 -95 159 -244 370 -324 459 l-31 35 27 -40z m-3419 -2157 c-3 -73
-12 -188 -18 -256 -11 -103 -11 -125 0 -132 11 -6 11 -52 -4 -271 -10 -145
-18 -289 -19 -319 l-1 -55 38 -9 37 -10 1 -80 c0 -45 8 -141 18 -215 15 -115
15 -134 3 -139 -8 -3 -121 -2 -251 1 -210 6 -247 9 -336 33 -55 14 -102 29
-105 34 -3 4 -4 76 -2 159 3 130 5 151 19 151 14 0 15 15 10 133 -4 77 -15
167 -27 217 -11 47 -23 134 -27 194 l-6 110 35 -22 c69 -43 159 -20 279 71 34
25 57 36 69 32 48 -15 97 56 85 125 -5 32 -3 39 19 53 38 26 105 119 112 158
6 36 63 169 72 169 3 0 2 -60 -1 -132z m715 17 c9 -16 24 -56 33 -87 10 -38
33 -79 65 -120 55 -67 56 -69 38 -97 -9 -15 -9 -29 1 -63 16 -54 28 -68 56
-68 12 0 48 -13 81 -29 148 -74 239 -79 300 -20 20 19 43 46 52 62 28 46 35
32 29 -55 -4 -61 -18 -118 -51 -218 -25 -74 -58 -177 -72 -230 -14 -52 -27
-102 -30 -112 -4 -12 10 -21 60 -38 l64 -21 7 -122 c4 -67 5 -144 3 -171 l-3
-50 -90 -23 c-129 -33 -595 -69 -595 -46 0 3 7 74 16 157 9 88 13 180 10 221
l-6 71 35 13 c28 10 34 16 30 34 -2 12 -12 96 -20 187 -9 91 -23 221 -31 289
-11 89 -12 126 -4 131 8 5 5 43 -10 130 -21 119 -42 367 -33 383 3 4 15 -12
27 -35 12 -24 30 -56 38 -73z m-3322 -55 c86 -16 176 -66 244 -134 122 -123
156 -242 182 -652 l6 -101 80 -53 c72 -47 258 -214 258 -231 0 -4 -13 -12 -30
-19 -76 -32 -139 -153 -125 -243 18 -118 64 -186 173 -257 91 -58 86 -54 139
-113 39 -45 43 -47 70 -36 22 10 24 13 11 16 -10 3 -18 9 -18 14 0 10 29 5
100 -17 25 -7 88 -25 140 -39 52 -14 109 -29 125 -34 55 -15 174 -81 261 -144
204 -147 245 -166 409 -186 82 -10 116 -30 95 -56 -16 -20 69 0 152 35 70 29
125 61 179 105 38 30 47 52 11 27 -17 -13 -66 -34 -109 -48 -93 -31 -267 -43
-354 -25 -82 17 -224 92 -324 172 -94 74 -188 140 -237 165 -16 8 -93 37 -171
65 -78 28 -146 54 -151 59 -5 5 8 31 32 63 42 53 51 77 32 77 -5 0 -10 -4 -10
-9 0 -16 -85 -51 -123 -51 -82 0 -236 72 -313 148 -90 87 -80 213 21 264 113
57 236 49 492 -31 103 -33 296 -83 428 -111 132 -29 300 -72 374 -96 407 -133
682 -348 767 -597 21 -62 24 -87 23 -216 -1 -239 -28 -416 -78 -518 -11 -25
-22 -33 -41 -33 -66 0 -337 42 -450 70 -25 6 -70 16 -101 22 l-56 10 -7 66
c-9 83 -38 152 -82 192 -19 17 -31 36 -28 42 5 7 2 8 -5 4 -7 -5 -20 -1 -29 7
-9 8 -40 24 -69 37 -29 13 -49 28 -46 33 3 6 1 7 -4 4 -21 -13 -240 70 -398
150 -121 61 -206 119 -340 232 -33 28 -64 51 -68 51 -5 0 -5 4 -2 10 3 5 -3
15 -15 22 -24 15 -26 28 -5 28 8 0 15 -5 15 -12 0 -6 2 -9 5 -6 3 3 3 13 -1
22 -4 12 -13 15 -28 10 -31 -10 -32 -12 -5 -41 l24 -26 -25 7 c-14 3 -88 20
-164 36 -222 48 -341 97 -436 177 -89 75 -256 305 -335 463 -41 80 -49 106
-53 168 l-5 72 29 0 29 1 -26 22 c-26 21 -27 26 -33 172 -12 288 -81 506 -192
605 l-28 25 23 -35 c82 -128 112 -247 118 -470 5 -197 7 -194 -64 -75 -125
209 -214 403 -228 496 -12 83 23 166 87 204 81 48 179 64 278 45z m6127 -5
c61 -18 128 -62 153 -100 49 -74 27 -204 -65 -387 -63 -126 -195 -348 -207
-348 -11 0 -10 178 2 284 13 107 60 256 107 333 18 31 31 58 29 60 -7 8 -86
-98 -112 -150 -24 -47 -49 -121 -73 -217 -21 -84 -31 -214 -31 -400 -1 -127
-5 -197 -14 -222 -24 -67 -118 -226 -189 -320 -197 -261 -274 -313 -552 -378
-71 -17 -156 -37 -189 -46 -32 -8 -60 -13 -61 -12 -2 2 28 39 67 83 45 52 92
94 134 119 85 51 155 129 177 196 40 125 6 247 -85 305 -26 17 -47 33 -47 37
-2 19 185 190 253 233 46 30 78 57 81 69 2 12 7 80 10 151 11 226 52 412 110
506 54 85 193 185 291 208 61 14 156 12 211 -4z m-3138 -818 c16 -108 32 -201
36 -206 3 -6 13 -11 21 -11 10 0 14 -11 14 -37 0 -21 7 -85 15 -143 9 -58 15
-141 13 -185 l-3 -79 -48 -12 c-45 -11 -53 -10 -100 12 -29 13 -58 24 -64 24
-14 0 -19 61 -15 190 4 148 14 239 24 237 10 -2 25 82 59 325 7 48 14 86 16
85 1 -2 16 -92 32 -200z m-2234 62 c110 -54 255 -209 255 -273 0 -15 -21 -26
-50 -26 -51 0 -195 98 -307 209 -112 110 -117 136 -24 129 37 -3 80 -16 126
-39z m4610 31 c30 -49 -303 -331 -390 -330 -56 1 -56 37 -1 124 54 85 149 157
258 196 57 21 123 26 133 10z m-1111 -349 c3 -4 8 -58 12 -118 l7 -110 -37 -7
c-21 -4 -44 -10 -53 -13 -14 -5 -15 4 -9 73 16 186 15 184 47 184 15 0 30 -4
33 -9z m-2500 -57 c3 -26 6 -82 6 -126 0 -71 -2 -79 -17 -74 -10 3 -37 10 -60
16 -24 6 -43 16 -43 23 0 7 11 47 25 90 14 43 25 87 25 97 0 15 7 20 29 20 26
0 29 -3 35 -46z m3403 -93 c68 -30 94 -60 100 -113 12 -103 -49 -188 -180
-253 -128 -62 -219 -69 -291 -20 -54 37 -43 -9 17 -73 19 -19 27 -35 21 -41
-5 -4 -72 -29 -149 -55 -161 -54 -247 -100 -360 -192 -168 -135 -309 -212
-431 -235 -128 -24 -279 6 -394 79 -36 23 -49 28 -36 14 28 -32 149 -102 222
-128 77 -28 91 -30 74 -9 -14 16 -6 18 25 6 12 -5 26 -4 34 3 8 6 50 14 95 17
105 9 153 20 219 53 43 21 170 109 197 136 40 41 187 120 276 149 78 26 189
43 246 39 34 -2 42 -6 40 -20 -2 -10 2 -18 8 -18 5 0 10 5 10 10 0 6 5 10 10
10 13 0 -18 -50 -45 -71 -11 -9 -31 -26 -44 -38 -15 -13 -33 -19 -45 -16 -12
3 -15 2 -8 -1 32 -14 -97 -107 -308 -220 -53 -29 -159 -73 -245 -102 -213 -72
-344 -161 -367 -248 -7 -24 -15 -44 -18 -44 -3 0 -7 -24 -8 -52 -1 -29 -8 -58
-15 -65 -12 -12 -144 -43 -184 -43 -13 0 -23 -4 -23 -10 0 -5 -11 -10 -25 -10
-13 0 -80 -9 -147 -19 -153 -24 -232 -31 -244 -23 -14 10 -53 130 -65 199 -9
54 -39 296 -39 318 0 6 4 4 9 -4 5 -8 6 24 4 76 -5 76 -2 101 17 159 33 101
83 179 175 269 97 97 202 169 351 241 200 97 350 143 709 218 94 20 235 57
314 82 200 64 252 74 356 71 67 -3 103 -9 142 -26z m-5277 -156 c30 -16 74
-80 85 -126 5 -22 2 -27 -29 -36 -40 -12 -46 -9 -46 25 0 30 -26 62 -50 62
-30 0 -40 -23 -40 -93 0 -71 -10 -100 -43 -130 -62 -54 -161 -17 -206 76 -27
55 -27 87 -2 87 11 0 26 3 34 6 11 4 17 -4 22 -25 9 -40 42 -81 65 -81 30 0
41 32 34 97 -7 66 8 110 48 137 28 20 90 20 128 1z m6324 -34 c16 -17 15 -20
-14 -51 -16 -18 -30 -36 -30 -41 0 -20 31 -20 59 0 42 30 83 36 119 17 66 -34
66 -96 1 -170 -46 -52 -60 -56 -79 -22 -12 23 -10 27 19 51 61 52 23 90 -44
45 -62 -41 -145 -9 -145 57 0 32 32 90 63 115 28 22 30 22 51 -1z m-6272 -235
l28 -35 -41 -28 c-129 -90 -146 -107 -113 -120 19 -7 60 13 134 66 l55 40 28
-26 c15 -15 27 -30 27 -34 0 -5 -33 -29 -72 -55 -40 -25 -89 -62 -109 -81
l-36 -34 -22 27 c-11 15 -21 33 -21 40 0 8 -6 14 -14 14 -20 0 -66 57 -66 81
0 35 18 56 82 97 35 22 72 49 83 60 11 12 22 21 25 21 3 1 17 -14 32 -33z
m6235 -32 c48 -37 92 -70 97 -75 8 -7 -32 -69 -45 -69 -4 0 -44 27 -88 60 -45
33 -86 60 -91 60 -25 0 -8 -51 27 -82 20 -18 55 -50 78 -70 l40 -37 -27 -27
-27 -27 -93 70 c-51 39 -103 76 -116 83 l-23 11 24 32 c14 18 31 31 39 30 10
-2 14 8 15 33 1 46 27 74 69 74 25 0 54 -16 121 -66z m-6051 -197 c-3 -14 3
-21 25 -29 37 -13 63 -59 54 -98 -12 -54 -117 -130 -181 -130 -31 0 -80 33
-89 60 -6 19 -9 18 -49 -15 -24 -19 -47 -35 -53 -35 -5 0 -20 11 -33 25 l-24
25 20 21 c12 11 70 57 130 103 60 45 118 96 129 113 l20 31 28 -26 c18 -17 26
-34 23 -45z m5864 -7 c54 -50 83 -69 103 -70 16 0 27 -6 27 -14 0 -20 -39 -66
-56 -66 -8 0 -14 -10 -14 -25 0 -33 -53 -68 -93 -60 -70 13 -137 98 -137 174
0 49 49 131 78 131 9 0 51 -32 92 -70z m-371 -166 c36 -32 51 -41 51 -29 0 9
14 30 30 47 25 24 36 29 57 23 23 -5 181 -144 191 -166 5 -12 -31 -49 -48 -49
-9 0 -48 29 -87 65 -39 36 -76 65 -82 65 -6 0 -11 -11 -11 -24 0 -16 21 -44
65 -87 36 -35 65 -68 65 -74 -1 -5 -10 -21 -20 -34 l-20 -23 -43 35 c-23 19
-69 60 -102 92 -33 31 -85 78 -116 105 l-57 47 26 27 c15 14 32 26 38 26 7 0
35 -21 63 -46z m-5336 -2 c15 -16 24 -31 21 -35 -4 -4 6 -11 22 -17 47 -18 64
-40 64 -80 0 -74 -96 -160 -179 -160 -24 0 -42 9 -68 35 l-35 35 -41 -35 c-22
-19 -46 -35 -52 -35 -18 0 -55 44 -47 56 6 9 70 64 210 183 28 24 54 52 57 62
8 26 17 24 48 -9z m5345 -178 c48 -37 92 -110 92 -153 0 -40 -24 -76 -57 -88
-22 -8 -21 -9 17 -51 22 -24 40 -46 40 -51 0 -4 -12 -18 -26 -32 l-25 -24 -72
75 c-40 41 -99 105 -132 141 -34 36 -67 68 -75 71 -19 6 37 57 63 58 9 0 17 8
17 18 1 39 51 75 94 67 16 -3 45 -17 64 -31z m-5101 -64 c22 -13 36 -32 44
-60 11 -37 10 -46 -9 -85 -42 -88 -138 -128 -212 -90 -88 46 -77 153 23 226
48 35 106 39 154 9z m4877 -83 l20 -28 -28 -22 c-36 -29 -31 -48 35 -127 27
-33 49 -63 49 -68 0 -5 -11 -19 -25 -32 l-25 -23 -26 24 c-14 13 -51 55 -82
92 -31 38 -68 74 -81 81 l-24 13 37 28 c30 22 39 25 51 15 13 -10 15 -9 15 12
0 31 28 70 47 66 9 -2 25 -16 37 -31z m-4719 -82 c-4 -19 0 -20 30 -17 30 4
40 -1 69 -33 l34 -36 22 30 c12 17 24 31 28 31 4 -1 20 -12 37 -25 l29 -24
-24 -26 -25 -27 24 -19 24 -20 -20 -21 c-17 -16 -24 -18 -41 -9 -19 10 -26 5
-67 -46 -25 -32 -45 -61 -45 -65 0 -4 7 -14 16 -23 13 -12 14 -19 4 -30 -17
-21 -43 -19 -74 6 -41 32 -35 70 25 156 27 40 45 73 40 73 -6 0 -11 8 -11 17
0 13 -3 14 -12 5 -18 -18 -36 -15 -43 8 -12 38 -47 24 -111 -46 -61 -67 -61
-68 -93 -55 -17 8 -31 17 -31 21 0 10 45 76 82 120 16 19 33 41 39 48 6 7 15
25 20 41 l10 29 35 -21 c25 -16 33 -27 29 -42z m4492 -2 c38 -18 103 -98 128
-156 46 -110 -13 -217 -120 -217 -103 0 -217 128 -219 246 0 61 19 96 72 123
46 25 93 26 139 4z m-4000 -235 c38 -27 40 -33 13 -48 -14 -8 -25 -7 -40 2
-16 11 -23 10 -37 -5 -17 -17 -17 -19 0 -28 11 -6 16 -17 12 -28 -4 -14 0 -16
28 -13 46 5 87 -29 87 -71 0 -41 -38 -108 -70 -124 -87 -44 -161 37 -116 126
8 15 22 33 30 41 12 9 14 16 5 26 -16 19 -22 13 -85 -82 -31 -46 -61 -84 -66
-84 -8 0 -47 17 -56 25 -2 2 18 32 43 67 61 81 79 118 76 146 -2 16 3 22 18
22 11 0 31 11 45 25 31 31 69 32 113 3z m3651 -14 c21 -14 23 -23 21 -77 -3
-60 -2 -61 29 -74 36 -15 36 -14 22 21 -8 23 -6 28 20 41 30 15 30 15 41 -12
6 -15 13 -43 16 -61 3 -19 12 -36 19 -38 46 -14 45 -13 32 -34 -7 -11 -22 -20
-34 -20 -11 0 -33 -14 -50 -31 -62 -65 -116 -75 -166 -30 -30 27 -33 35 -33
86 0 50 -3 59 -27 76 -54 40 -57 117 -6 153 29 21 87 21 116 0z m-3198 -170
c5 -5 14 -56 20 -114 6 -58 13 -106 14 -107 2 -2 17 40 35 92 18 52 37 95 42
95 12 0 79 -28 79 -32 0 -3 -96 -284 -125 -366 -4 -10 -12 -9 -42 3 -20 9 -39
17 -41 20 -2 2 -10 54 -18 117 -8 62 -16 117 -17 121 -1 5 -18 -36 -36 -90
-19 -54 -37 -101 -40 -105 -7 -8 -81 12 -81 22 0 14 114 352 125 370 5 9 70
-11 85 -26z m-319 1 c16 -9 27 -20 24 -25 -4 -6 9 -10 29 -10 45 0 52 -13 25
-44 -17 -20 -26 -23 -36 -15 -20 18 -39 4 -77 -55 -38 -59 -50 -65 -81 -42
-19 14 -19 15 4 58 13 23 30 50 37 58 7 8 16 29 20 45 12 52 12 52 55 30z
m3262 -47 c14 -18 45 -75 70 -126 l45 -92 -35 -15 c-19 -8 -39 -12 -44 -9 -5
3 -30 46 -54 95 -44 87 -68 108 -78 70 -4 -19 44 -153 65 -178 7 -9 1 -18 -24
-33 -18 -11 -37 -20 -41 -20 -5 0 -31 48 -59 108 -27 59 -57 115 -65 124 -14
15 -11 18 26 37 36 19 41 19 49 5 8 -14 10 -12 16 9 7 29 47 56 83 57 13 0 32
-13 46 -32z m-685 -102 c5 -13 25 -88 42 -167 18 -79 39 -155 47 -168 20 -31
5 -45 -47 -46 -22 0 -40 -3 -40 -6 0 -3 -11 -11 -25 -17 -77 -35 -138 15 -160
131 -13 69 39 157 94 157 21 0 23 3 16 38 -3 20 -13 47 -21 60 -12 18 -12 23
-2 26 7 3 20 7 28 9 35 12 57 6 68 -17z m453 -7 c15 -17 31 -47 35 -66 8 -42
-5 -56 -68 -75 -44 -13 -50 -35 -11 -44 17 -5 38 -1 60 11 32 18 34 18 48 -1
21 -27 19 -31 -26 -61 -48 -31 -111 -35 -151 -9 -39 25 -68 92 -68 155 0 47 4
57 34 87 28 28 42 34 76 34 34 0 47 -6 71 -31z m-719 -33 c8 -7 27 -83 42
-167 16 -85 32 -169 37 -188 5 -19 7 -37 4 -39 -2 -3 -22 -8 -44 -12 -29 -5
-41 -4 -45 6 -3 7 -14 66 -25 131 -33 185 -43 233 -52 239 -5 3 -9 11 -9 19 0
12 14 17 67 24 6 0 18 -5 25 -13z m514 -31 c12 -40 10 -45 -22 -45 -43 0 -49
-33 -23 -127 19 -72 20 -86 8 -94 -17 -11 -59 -23 -63 -18 -1 2 -21 56 -43
119 -22 63 -43 122 -47 131 -5 12 2 18 32 27 51 15 52 15 52 -5 1 -13 5 -10
16 10 15 28 50 48 69 41 6 -3 15 -20 21 -39z m-1618 12 c10 -8 11 -27 7 -73
l-7 -62 48 1 c48 2 48 2 60 -38 7 -22 13 -60 14 -85 l1 -45 31 82 30 81 37 -5
c49 -8 54 -15 37 -49 -8 -16 -42 -86 -75 -155 -66 -140 -100 -179 -156 -179
-19 0 -45 5 -59 11 -25 12 -25 12 -8 41 13 23 22 27 43 23 17 -4 33 0 49 13
l23 18 -17 80 c-23 104 -47 184 -56 184 -11 0 -34 -134 -34 -192 l0 -48 -38 0
c-21 0 -38 4 -38 9 0 6 -12 6 -32 0 -49 -14 -64 -11 -94 14 -56 48 -47 182 16
242 26 25 40 30 81 30 l49 0 2 35 c0 19 0 47 -1 62 -2 26 -1 27 36 21 21 -3
44 -10 51 -16z m-531 -32 c25 -29 30 -73 12 -124 -13 -36 -4 -34 -111 -15 -30
5 -38 3 -38 -9 0 -23 49 -57 82 -57 26 0 29 -3 26 -27 -3 -27 -5 -28 -59 -27
-102 2 -153 66 -130 161 24 92 76 137 151 130 32 -4 51 -12 67 -32z m1247 -17
c3 -13 8 -45 11 -71 6 -46 8 -48 24 -33 9 9 31 19 48 22 25 5 37 1 56 -18 21
-21 26 -39 32 -109 4 -46 13 -101 20 -121 9 -28 10 -38 1 -38 -6 0 -27 -3 -47
-6 -44 -7 -45 -5 -59 117 -5 45 -13 86 -18 91 -5 5 -16 0 -26 -11 -16 -18 -17
-30 -9 -109 l9 -90 -43 -9 c-24 -6 -45 -7 -47 -4 -3 3 -10 78 -16 166 -7 88
-16 171 -20 185 l-7 25 -14 -30 c-7 -16 -14 -31 -15 -33 -1 -1 -13 2 -28 7
-34 14 -73 -4 -92 -40 -23 -45 -18 -130 9 -170 22 -32 26 -34 80 -32 39 1 57
-2 57 -10 0 -7 3 -21 6 -33 8 -30 -40 -48 -116 -42 -51 4 -65 9 -94 37 -43 42
-60 101 -54 190 6 76 26 122 71 155 23 17 43 21 102 21 41 1 77 4 81 8 4 4 27
7 50 7 37 0 44 -3 48 -22z m-1019 -32 c26 -21 30 -31 30 -73 0 -83 -5 -87 -85
-80 -39 3 -70 3 -70 -1 0 -4 7 -18 16 -30 11 -16 25 -22 55 -22 37 0 39 -2 39
-30 0 -32 -13 -37 -83 -32 -120 9 -157 164 -62 259 28 28 40 33 82 33 36 0 56
-6 78 -24z m1327 -151 c27 -185 29 -168 -17 -176 -22 -4 -42 -5 -44 -3 -3 3
-13 59 -23 126 -10 67 -23 127 -28 132 -23 23 -1 35 60 33 l35 -2 17 -110z"/>
<path d="M7210 2625 c-37 -45 78 -220 140 -213 20 2 26 9 28 35 6 62 -87 193
-137 193 -10 0 -24 -7 -31 -15z"/>
<path d="M5613 6999 c-40 -5 -166 -29 -280 -55 -245 -55 -325 -59 -505 -25
-194 36 -495 28 -713 -20 -199 -44 -396 -102 -650 -193 -201 -73 -585 -228
-585 -238 0 -4 16 -1 36 7 43 18 47 18 39 5 -4 -6 1 -7 11 -3 11 4 15 2 11 -4
-4 -6 0 -13 8 -17 24 -9 17 20 -7 32 -20 10 -18 11 17 7 27 -3 32 -2 16 3
l-24 7 25 12 c25 11 25 10 23 -25 -2 -36 -1 -37 34 -36 22 0 76 21 141 54 58
29 202 86 321 126 119 40 240 84 270 97 238 109 438 156 599 142 61 -5 87 -2
140 14 94 30 153 27 262 -13 113 -41 350 -106 389 -106 15 0 50 -8 76 -19 26
-10 75 -24 108 -31 70 -14 110 -33 148 -68 15 -14 27 -21 27 -14 0 6 -4 14
-10 17 -25 15 -3 20 88 19 66 0 108 -5 132 -16 47 -21 102 -39 107 -34 2 2 -9
8 -24 14 -15 6 -53 20 -83 31 -35 14 -78 21 -122 21 -80 0 -110 10 -159 55
-26 23 -51 36 -83 40 -28 5 -46 12 -46 20 0 15 13 20 73 31 20 3 37 10 37 14
0 16 -35 21 -101 14 -78 -7 -103 9 -37 24 293 67 470 88 648 77 206 -13 264
-29 396 -107 45 -27 163 -85 263 -128 99 -44 262 -115 361 -159 99 -43 203
-94 232 -114 29 -19 64 -38 78 -42 14 -4 30 -12 37 -17 8 -6 18 -6 29 0 21 12
28 42 9 42 -7 0 -19 7 -26 17 -13 15 -10 16 26 10 22 -4 33 -4 25 0 -8 3 -52
23 -98 44 -45 22 -84 39 -87 39 -3 0 -62 27 -132 61 -71 33 -144 68 -163 76
-19 9 -78 36 -130 61 -306 143 -528 225 -677 247 -106 16 -378 18 -500 4z"/>
<path d="M6340 6646 c0 -3 25 -21 55 -42 31 -20 60 -46 67 -57 10 -20 11 -20
22 -1 12 22 36 25 51 7 7 -9 23 -9 59 -2 34 6 53 6 60 -2 8 -7 5 -8 -9 -3 -17
7 -18 6 -5 -8 11 -11 17 -13 23 -4 6 8 10 8 13 -1 7 -16 44 -58 44 -49 0 17
-56 84 -87 105 -46 30 -293 78 -293 57z"/>
<path d="M6766 6589 c4 -8 31 -46 59 -85 45 -63 52 -69 65 -56 13 14 12 15 -2
9 -12 -4 -19 0 -23 14 -4 11 -4 23 -1 26 3 4 6 -1 6 -9 0 -22 46 -32 70 -15
11 8 19 16 17 18 -1 2 3 -1 8 -7 6 -6 21 -15 35 -19 36 -11 -62 70 -121 100
-58 30 -126 44 -113 24z"/>
</g>
</svg>
